<svg xmlns="http://www.w3.org/2000/svg" width="13" height="17" viewBox="0 0 13 17">
  <defs>
    <style>
      .cls-1 {
        fill: #fff;
        fill-rule: evenodd;
      }
    </style>
  </defs>
  <path id="Article_Icon" data-name="Article Icon" class="cls-1" d="M448,2621h11a1,1,0,0,1,1,1v15a1,1,0,0,1-1,1H448a1,1,0,0,1-1-1v-15A1,1,0,0,1,448,2621Zm1.5,2.97h8a0.5,0.5,0,0,1,.5.5,0.5,0.5,0,0,1-.5.5h-8a0.5,0.5,0,0,1-.5-0.5A0.5,0.5,0,0,1,449.5,2623.97Zm0,3h8a0.5,0.5,0,0,1,.5.5,0.5,0.5,0,0,1-.5.5h-8a0.5,0.5,0,0,1-.5-0.5A0.5,0.5,0,0,1,449.5,2626.97Zm0,3h8a0.5,0.5,0,0,1,.5.5,0.5,0.5,0,0,1-.5.5h-8a0.5,0.5,0,0,1-.5-0.5A0.5,0.5,0,0,1,449.5,2629.97Zm0,3h5a0.5,0.5,0,0,1,.5.5,0.5,0.5,0,0,1-.5.5h-5a0.5,0.5,0,0,1-.5-0.5A0.5,0.5,0,0,1,449.5,2632.97Z" transform="translate(-447 -2621)"/>
</svg>
