<svg xmlns="http://www.w3.org/2000/svg" width="32.063" height="32" viewBox="0 0 32.063 32">
  <defs>
    <style>
      .cls-1 {
        fill: #fff;
        fill-rule: evenodd;
      }
    </style>
  </defs>
  <path id="Clock" class="cls-1" d="M489.006,1462.15a0.7,0.7,0,0,0-.708-0.71h-1.6a0.7,0.7,0,0,0-.708.71v7.78h-5.3a0.7,0.7,0,0,0-.707.71v1.66a0.7,0.7,0,0,0,.707.71H488.3a0.7,0.7,0,0,0,.708-0.71v-10.15Zm10.978,7.85a13,13,0,1,1-13-13.01A13.013,13.013,0,0,1,499.984,1470Zm3.111,0.01A16.029,16.029,0,1,0,487.066,1486,16.021,16.021,0,0,0,503.1,1470.01Z" transform="translate(-471.031 -1454)"/>
</svg>
