<svg xmlns="http://www.w3.org/2000/svg" width="32.031" height="28.88" viewBox="0 0 32.031 28.88">
  <defs>
    <style>
      .cls-1 {
        fill: #fff;
        fill-rule: evenodd;
      }
    </style>
  </defs>
  <path id="Heart" class="cls-1" d="M494.969,1366.56a5.583,5.583,0,0,1,4.2,1.83,6.332,6.332,0,0,1-.029,9c-0.111.12-8.465,8.81-11.144,11.6-2.264-2.42-10.207-10.9-11.163-11.86a6.328,6.328,0,0,1,0-8.97,5.414,5.414,0,0,1,4.135-1.59c0.561,0,2.166.29,4.926,3.01a3.012,3.012,0,0,0,2.105.86h0.024a3,3,0,0,0,2.115-.89c2.169-2.21,3.958-2.99,4.83-2.99m0-3c-2.363,0-5,1.88-6.969,3.88-2.031-2-4.585-3.87-7.031-3.87a8.412,8.412,0,0,0-6.256,2.47,9.323,9.323,0,0,0,0,13.21c1.045,1.05,11.59,12.33,11.59,12.33a2.081,2.081,0,0,0,3.37,0s11.5-11.97,11.614-12.09a9.333,9.333,0,0,0,0-13.22,8.551,8.551,0,0,0-6.318-2.71h0Z" transform="translate(-472 -1363.56)"/>
</svg>
