<svg xmlns="http://www.w3.org/2000/svg" width="15.312" height="15.687" viewBox="0 0 15.312 15.687">
  <defs>
    <style>
      .cls-1 {
        fill: #fff;
        fill-rule: evenodd;
      }
    </style>
  </defs>
  <path id="LinkedIn_icon" data-name="LinkedIn icon" class="cls-1" d="M902.453,624a1.681,1.681,0,0,1-1.883,1.679A1.7,1.7,0,1,1,902.453,624Zm-3.383,14V627.174h2.991V638H899.07Zm4.86-10.825H906.6l0.221,1.172a4.081,4.081,0,0,1,3.46-1.551c2.206,0,3.731,1.286,3.731,4.46V638h-2.979v-6.266a2.116,2.116,0,0,0-2.072-2.336,2.143,2.143,0,0,0-1.931,1.257,2.414,2.414,0,0,0-.11.837V638H903.93V627.174Z" transform="translate(-898.688 -622.313)"/>
</svg>
