<svg xmlns="http://www.w3.org/2000/svg" width="19" height="13.97" viewBox="0 0 19 13.97">
  <defs>
    <style>
      .cls-1 {
        fill: #fff;
        fill-rule: evenodd;
      }
    </style>
  </defs>
  <path id="Photo_icon" data-name="Photo icon" class="cls-1" d="M461.81,1698.99h-2.8l-1.069-2.2a1.8,1.8,0,0,0-1.477-.77H450.53a1.8,1.8,0,0,0-1.477.77l-1.069,2.2h-2.8a1.176,1.176,0,0,0-1.187,1.17v8.67a1.176,1.176,0,0,0,1.187,1.17h16.622a1.176,1.176,0,0,0,1.187-1.17v-8.67A1.176,1.176,0,0,0,461.81,1698.99Zm-8.312,8.06a3.434,3.434,0,0,1-3.531-3.42,3.532,3.532,0,1,1,7.061,0A3.434,3.434,0,0,1,453.5,1707.05Z" transform="translate(-444 -1696.03)"/>
</svg>
