<svg xmlns="http://www.w3.org/2000/svg" width="31.938" height="28.81" viewBox="0 0 31.938 28.81">
  <defs>
    <style>
      .cls-1 {
        fill: #fff;
        fill-rule: evenodd;
      }
    </style>
  </defs>
  <path id="Share_icon_copy" data-name="Share icon copy" class="cls-1" d="M479.584,1567.55h0.092a0.644,0.644,0,0,1-.629-0.62c-0.01-.27-0.421-6.63,3.781-10.98a12.461,12.461,0,0,1,9.174-4.09v-5.02a0.643,0.643,0,0,1,1.038-.51l10.645,8.33a0.644,0.644,0,0,1,.248.51,0.659,0.659,0,0,1-.248.51l-10.645,8.33a0.663,0.663,0,0,1-.678.07,0.656,0.656,0,0,1-.36-0.58v-5.52c-11.622.29-11.784,8.63-11.811,8.98A0.612,0.612,0,0,1,479.584,1567.55Zm19.41-5.31v9.12a0.644,0.644,0,0,1-.643.64H475.643a0.645,0.645,0,0,1-.644-0.64v-15.73a0.645,0.645,0,0,1,.644-0.64h4.666a11.049,11.049,0,0,1,2.844-2.98h-9.229a1.935,1.935,0,0,0-1.931,1.93v19.14a1.935,1.935,0,0,0,1.931,1.93H500.07a1.935,1.935,0,0,0,1.93-1.93v-13.25Z" transform="translate(-472 -1546.19)"/>
</svg>
