<svg xmlns="http://www.w3.org/2000/svg" width="20" height="13.06" viewBox="0 0 20 13.06">
  <defs>
    <style>
      .cls-1 {
        fill: #fff;
        fill-rule: evenodd;
      }
    </style>
  </defs>
  <path id="Video_Icon" data-name="Video Icon" class="cls-1" d="M142.683,1383a1.3,1.3,0,0,1,1.3,1.3v2.99l4.886-4.1a0.653,0.653,0,0,1,1.114.46v11.74a0.648,0.648,0,0,1-1.114.46l-4.886-4.1,0,2.99a1.3,1.3,0,0,1-1.305,1.3H131.3a1.3,1.3,0,0,1-1.3-1.3l0-10.44a1.3,1.3,0,0,1,1.3-1.3h11.376Z" transform="translate(-130 -1383)"/>
</svg>
