<svg xmlns="http://www.w3.org/2000/svg"><defs><style>.cls-1{fill:#56ccc8;fill-rule:evenodd}</style><style>.cls-1{fill:#fff;fill-rule:evenodd}</style><style>.cls-1{fill:#fff;fill-rule:evenodd}</style><style>.cls-1{fill:#56ccc8;fill-rule:evenodd}</style><style>.cls-1{fill:#c5cdd1;fill-rule:evenodd}</style><style>.cls-1{fill:#b2b9bd;fill-rule:evenodd}</style><style>.cls-1{fill:#fff;fill-rule:evenodd}</style><style>.cls-1{fill:#fff;fill-rule:evenodd}</style><style>.cls-1{fill:#b2b9bd;fill-rule:evenodd}</style><style>.cls-1{fill:#fff;fill-rule:evenodd}</style><style>.cls-1{fill:#c5cdd1;fill-rule:evenodd}</style><style>.cls-1{fill:#c5cdd1;fill-rule:evenodd}</style><style>.cls-1{fill:#fff;fill-rule:evenodd}</style><style>.cls-1{fill:#b2b9bd;fill-rule:evenodd}</style><style>.cls-1{fill:#fff;fill-rule:evenodd}</style><style>.cls-1{fill:#fff;fill-rule:evenodd}</style><style>.cls-1{fill:#fff;fill-rule:evenodd}</style><style>.cls-1{fill:#fff;fill-rule:evenodd}</style><style>.cls-1{fill:#fff;fill-rule:evenodd}</style><style>.cls-1{fill:#fff;fill-rule:evenodd}</style><style>.cls-1{fill:#fff;fill-rule:evenodd}</style><style>.cls-1{fill:#b2b9bd;fill-rule:evenodd}</style><style>.cls-1{fill:#fff;fill-rule:evenodd}</style><style>.cls-1{fill:#c5cdd1;fill-rule:evenodd}</style><style>.cls-1{fill:#c5cdd1;fill-rule:evenodd}</style><style>.cls-1{fill:#b2b9bd;fill-rule:evenodd}</style><style>.cls-1{fill:#c5cdd1;fill-rule:evenodd}</style><style>.cls-1{fill:#fff;fill-rule:evenodd}</style><style>.cls-1{fill:#56ccc8;fill-rule:evenodd}</style></defs><symbol id="arrow-icon" viewBox="0 0 18.031 18.125"><path id="arrow" class="cls-1" d="M554.983 364.926a9.073 9.073 0 1 1-9.016 9.074 9.056 9.056 0 0 1 9.016-9.073m1.264 9.081l-3.436-3.318a.822.822 0 0 1 0-1.2l.313-.3a.914.914 0 0 1 1.251 0l4.043 3.9c.007.006.015.007.021.013l.313.3a.829.829 0 0 1 0 1.2l-.313.3a.12.12 0 0 0-.021.013l-4.043 3.867a.912.912 0 0 1-1.251 0l-.313-.3a.822.822 0 0 1 0-1.2z" transform="translate(-545.969 -364.938)"/></symbol><symbol id="article-icon" viewBox="0 0 13 17"><path id="Article_Icon" data-name="Article Icon" class="cls-1" d="M448 2621h11a1 1 0 0 1 1 1v15a1 1 0 0 1-1 1h-11a1 1 0 0 1-1-1v-15a1 1 0 0 1 1-1zm1.5 2.97h8a.5.5 0 0 1 .5.5.5.5 0 0 1-.5.5h-8a.5.5 0 0 1-.5-.5.5.5 0 0 1 .5-.5zm0 3h8a.5.5 0 0 1 .5.5.5.5 0 0 1-.5.5h-8a.5.5 0 0 1-.5-.5.5.5 0 0 1 .5-.5zm0 3h8a.5.5 0 0 1 .5.5.5.5 0 0 1-.5.5h-8a.5.5 0 0 1-.5-.5.5.5 0 0 1 .5-.5zm0 3h5a.5.5 0 0 1 .5.5.5.5 0 0 1-.5.5h-5a.5.5 0 0 1-.5-.5.5.5 0 0 1 .5-.5z" transform="translate(-447 -2621)"/></symbol><symbol id="clock-icon" viewBox="0 0 32.063 32"><path id="Clock" class="cls-1" d="M489.006 1462.15a.7.7 0 0 0-.708-.71h-1.6a.7.7 0 0 0-.708.71v7.78h-5.3a.7.7 0 0 0-.707.71v1.66a.7.7 0 0 0 .707.71h7.61a.7.7 0 0 0 .708-.71v-10.15zm10.978 7.85a13 13 0 1 1-13-13.01 13.013 13.013 0 0 1 13 13.01zm3.111.01a16.029 16.029 0 1 0-16.029 15.99 16.021 16.021 0 0 0 16.034-15.99z" transform="translate(-471.031 -1454)"/></symbol><symbol id="comments-icon" viewBox="0 0 16 15.03"><path id="Comments_icon" data-name="Comments icon" class="cls-1" d="M787 2830.97c-4.419 0-8 3.22-8 6.53a5.781 5.781 0 0 0 3.5 4.96.054.054 0 0 0 0 .04c.5.5-.5 3.5-1.5 3.5 1.658.01 4-1 4.457-2.62a9.75 9.75 0 0 0 1.543.12c4.418 0 8-2.69 8-6s-3.582-6.53-8-6.53z" transform="translate(-779 -2830.97)"/></symbol><symbol id="email-icon" viewBox="0 0 24 16"><path id="Email_Icon" data-name="Email Icon" class="cls-1" d="M152.987 578.057a1.383 1.383 0 0 1-.9-.282L141 570.731v10.79a1.5 1.5 0 0 0 1.5 1.5h21a1.5 1.5 0 0 0 1.5-1.5V570.7l-11.1 7.086a2.837 2.837 0 0 1-.913.271zM165 568.521a1.5 1.5 0 0 0-1.5-1.5h-21a1.5 1.5 0 0 0-1.5 1.5l11.993 7.528z" transform="translate(-141 -567.031)"/></symbol><symbol id="facebook-icon" viewBox="0 0 7.562 16.937"><path id="Facebook_Icon" data-name="Facebook Icon" class="cls-1" d="M895.672 129.063h-1.6a3.062 3.062 0 0 0-3.345 3.275v2.673h-2.271l.006 1.9h2.264v9.092H893v-9.093h2.507l.535-1.9h-3.029v-2.745a.934.934 0 0 1 1.059-.925h1.59z" transform="translate(-888.469 -129.063)"/></symbol><symbol id="follow-icon" viewBox="0 0 24 24"><path id="Follow" class="cls-1" d="M1020.04 293a10 10 0 1 1-10 10 10.008 10.008 0 0 1 10-10m0-2a12 12 0 1 0 12 12 12 12 0 0 0-12-12zm-5.04 11h10v2h-10v-2zm6-4v10h-2v-10h2z" transform="translate(-1008.03 -291)"/></symbol><symbol id="followed-icon" viewBox="0 0 24 24"><path id="Follow_user" data-name="Follow user" class="cls-1" d="M1020.04 454a12 12 0 1 0 12 12 12 12 0 0 0-12-12zm-2.56 17.63a1.226 1.226 0 0 1-.89-.384l-.34-.354-.01-.018-2.83-3.006a1.328 1.328 0 0 1 0-1.8l.3-.312a1.229 1.229 0 0 1 1.78 0l2 2.136 6.03-6.139a1.2 1.2 0 0 1 .88-.378 1.224 1.224 0 0 1 .89.382l.3.312a1.33 1.33 0 0 1 0 1.8l-6.91 7.048-.31.329a1.212 1.212 0 0 1-.89.383z" transform="translate(-1008.03 -454)"/></symbol><symbol id="google-plus-icon" viewBox="0 0 16.031 16.031"><path id="G_Icon_copy" data-name="G+ Icon copy" class="cls-1" d="M957.29 139.132c-.441-.329-1.4-1-1.4-1.456 0-.531.152-.792.954-1.417a3.215 3.215 0 0 0 1.4-2.529 2.982 2.982 0 0 0-1.347-2.675h1.247l1.061-1.086h-4.749c-2.409 0-4.418 1.746-4.418 3.695a3.4 3.4 0 0 0 3.586 3.577c.158 0 .311-.01.46-.02a2 2 0 0 0-.251.923 1.649 1.649 0 0 0 .682 1.233c-.285 0-.56.008-.861.008-2.76 0-4.675.873-4.675 3.574 0 1.79 2.312 3.042 5.072 3.042 3.145 0 5.108-1.663 5.08-3.568-.019-1.433-.308-2.154-1.841-3.301zm-5.324-5.368a2.165 2.165 0 0 1 2.069-2.649c1.214.037 2 1.227 2.214 2.808s-.489 2.558-1.7 2.523a2.891 2.891 0 0 1-2.583-2.682zM954 144.828c-1.792 0-3.087-1.029-3.087-2.29 0-1.238 1.452-1.9 3.209-1.9.653 0 2.612 0 3.22 1.514a1.247 1.247 0 0 1 .057.445c.001 1.268-.879 2.231-3.399 2.231zm11.011-11.813h-2V135h-1.04v-1.984H960v-1h1.969v-2.042h1.04v2.042h2v1z" transform="translate(-948.969 -129.969)"/></symbol><symbol id="heart-icon" viewBox="0 0 32.031 28.88"><path id="Heart" class="cls-1" d="M494.969 1366.56a5.583 5.583 0 0 1 4.2 1.83 6.332 6.332 0 0 1-.029 9c-.111.12-8.465 8.81-11.144 11.6-2.264-2.42-10.207-10.9-11.163-11.86a6.328 6.328 0 0 1 0-8.97 5.414 5.414 0 0 1 4.135-1.59c.561 0 2.166.29 4.926 3.01a3.012 3.012 0 0 0 2.105.86h.024a3 3 0 0 0 2.115-.89c2.169-2.21 3.958-2.99 4.83-2.99m0-3c-2.363 0-5 1.88-6.969 3.88-2.031-2-4.585-3.87-7.031-3.87a8.412 8.412 0 0 0-6.256 2.47 9.323 9.323 0 0 0 0 13.21c1.045 1.05 11.59 12.33 11.59 12.33a2.081 2.081 0 0 0 3.37 0l11.614-12.09a9.333 9.333 0 0 0 0-13.22 8.551 8.551 0 0 0-6.318-2.71z" transform="translate(-472 -1363.56)"/></symbol><symbol id="home-icon" viewBox="0 0 24.313 21.718"><path id="Home_icon" data-name="Home icon" class="cls-1" d="M161.239 210.315l-10.8-10.854a1.5 1.5 0 0 0-2.052 0l-10.8 10.854c-.54.594-.378 1.026.432 1.026h2.269v8.37c0 .594.054 1.08 1.134 1.08h5.238v-8.37h5.508v8.37h5.508c.864 0 .864-.486.864-1.08v-8.37h2.268c.809 0 1.025-.432.431-1.026z" transform="translate(-137.25 -199.063)"/></symbol><symbol id="info-icon" viewBox="0 0 22.563 22.531"><path id="Info_icon" data-name="Info icon" class="cls-1" d="M151.912 503.877a11.27 11.27 0 1 0 11.417 11.073 11.241 11.241 0 0 0-11.417-11.073zm1.274 3.724a1.3 1.3 0 0 1 1.47 1.421 1.913 1.913 0 0 1-2.058 1.862 1.35 1.35 0 0 1-1.567-1.47 1.964 1.964 0 0 1 2.155-1.814zm-2.939 14.552c-.784 0-1.372-.441-.833-2.548l.882-3.724c.2-.588.2-.833 0-.833a6.668 6.668 0 0 0-1.813.833l-.392-.637c1.911-1.617 4.066-2.547 5-2.547.784 0 .931.93.539 2.351l-1.029 3.92c-.2.686-.1.931.1.931a4.546 4.546 0 0 0 1.764-.882l.441.588a8.082 8.082 0 0 1-4.659 2.548z" transform="translate(-140.781 -503.875)"/></symbol><symbol id="linkedin-icon" viewBox="0 0 15.312 15.687"><path id="LinkedIn_icon" data-name="LinkedIn icon" class="cls-1" d="M902.453 624a1.681 1.681 0 0 1-1.883 1.679 1.7 1.7 0 1 1 1.883-1.679zm-3.383 14v-10.826h2.991V638h-2.991zm4.86-10.825h2.67l.221 1.172a4.081 4.081 0 0 1 3.46-1.551c2.206 0 3.731 1.286 3.731 4.46V638h-2.979v-6.266a2.116 2.116 0 0 0-2.072-2.336 2.143 2.143 0 0 0-1.931 1.257 2.414 2.414 0 0 0-.11.837V638h-2.99v-10.826z" transform="translate(-898.688 -622.313)"/></symbol><symbol id="login-icon" viewBox="0 0 16.09 16.062"><path id="Login_Icon" data-name="Login Icon" class="cls-1" d="M1023.99 145.03h-14.03a1.029 1.029 0 0 1-1.03-1.031v-.594a1.174 1.174 0 0 1 1.03-1.031l5.36-2.655a6.949 6.949 0 0 1-2.26-4.563v-2.578a4.094 4.094 0 0 1 4.12-3.609 3.814 3.814 0 0 1 3.84 3.609v2.578a6.694 6.694 0 0 1-2.24 4.573l5.21 2.645a1.194 1.194 0 0 1 1.03 1.031V144a1.029 1.029 0 0 1-1.03 1.03z" transform="translate(-1008.94 -128.969)"/></symbol><symbol id="note-icon" viewBox="0 0 22.594 22.594"><path id="Note_icon" data-name="Note icon" class="cls-1" d="M161.288 324.662l.329-.332a2.934 2.934 0 0 0 .963-2.081 2.858 2.858 0 0 0-1.007-2 2.7 2.7 0 0 0-1.892-.834 3.059 3.059 0 0 0-2.049.9l-.447.447zm-4.81-3.2c-2.762 2.765-9.5 9.522-9.5 9.522a.546.546 0 0 0-.139.242c-.23.849-1.38 4.619-1.391 4.657a.544.544 0 0 0 .135.544.534.534 0 0 0 .378.156.544.544 0 0 0 .164-.025c.039-.013 3.926-1.27 4.565-1.462a.527.527 0 0 0 .224-.132c.335-.331 7.029-6.965 9.67-9.6zm-4.71 15.3a2.553 2.553 0 0 1-1.064.627c-.617.185-4.218 1.245-4.349 1.287a2.6 2.6 0 0 1-.789.126 2.251 2.251 0 0 1-1.7-.684 2.524 2.524 0 0 1-.63-2.54c.741-2.433 1.245-4.123 1.372-4.593a2.551 2.551 0 0 1 .641-1.119l7.874-7.87h-11.79a1.28 1.28 0 0 0-1.322 1.4v17.014a1.435 1.435 0 0 0 1.322 1.59h16.143a1.533 1.533 0 0 0 1.494-1.54l.019-10.794c-3.027 3.006-6.957 6.839-7.221 7.1z" transform="translate(-140 -319.406)"/></symbol><symbol id="phone-icon" viewBox="0 0 22.937 23.125"><path id="Phone_icon" data-name="Phone icon" class="cls-1" d="M146.755 640.387a2.174 2.174 0 0 0-1.244.4c-.04.028-3.956 3-3.908 4.553.1 3.069 2.377 6.876 6.776 11.315s8.174 6.738 11.232 6.837h.037c1.516 0 4.431-3.906 4.458-3.944a1.9 1.9 0 0 0-.244-2.644c-.334-.236-3.971-2.675-4.412-2.947a1.611 1.611 0 0 0-.852-.225 2.6 2.6 0 0 0-1.2.325c-.307.162-2.117 1.946-2.672 2.265a34.316 34.316 0 0 1-5.672-5.721c.317-.559 1.741-2.731 1.9-3.04a2.113 2.113 0 0 0 .091-2.088c-.255-.407-2.655-4.078-2.92-4.449a1.661 1.661 0 0 0-1.369-.632z" transform="translate(-141.594 -640.375)"/></symbol><symbol id="photo-icon" viewBox="0 0 19 13.97"><path id="Photo_icon" data-name="Photo icon" class="cls-1" d="M461.81 1698.99h-2.8l-1.069-2.2a1.8 1.8 0 0 0-1.477-.77h-5.934a1.8 1.8 0 0 0-1.477.77l-1.069 2.2h-2.8a1.176 1.176 0 0 0-1.187 1.17v8.67a1.176 1.176 0 0 0 1.187 1.17h16.622a1.176 1.176 0 0 0 1.187-1.17v-8.67a1.176 1.176 0 0 0-1.183-1.17zm-8.312 8.06a3.434 3.434 0 0 1-3.531-3.42 3.532 3.532 0 1 1 7.061 0 3.434 3.434 0 0 1-3.528 3.42z" transform="translate(-444 -1696.03)"/></symbol><symbol id="pinterest-icon" viewBox="0 0 13 16.437"><path id="Pinterest_Icon" data-name="Pinterest Icon" class="cls-1" d="M642.792 452.7a2.771 2.771 0 0 1-2.352-1.177s-.56 2.177-.677 2.6a10.042 10.042 0 0 1-1.738 3.092.129.129 0 0 1-.229-.054 10.383 10.383 0 0 1 .028-3.591l1.239-5.149a3.561 3.561 0 0 1-.308-1.494c0-1.4.828-2.446 1.858-2.446a1.273 1.273 0 0 1 1.3 1.418 20.021 20.021 0 0 1-.849 3.354 1.469 1.469 0 0 0 1.519 1.819c1.824 0 3.053-2.3 3.053-5.024 0-2.071-1.421-3.621-4.006-3.621a4.519 4.519 0 0 0-4.74 4.526 2.691 2.691 0 0 0 .635 1.852.454.454 0 0 1 .139.528c-.047.173-.152.592-.2.757a.332.332 0 0 1-.482.237 3.624 3.624 0 0 1-1.971-3.611c0-2.683 2.306-5.9 6.881-5.9 3.675 0 6.094 2.611 6.094 5.414 0 3.696-2.1 6.47-5.194 6.47z" transform="translate(-635 -440.813)"/></symbol><symbol id="pointer-icon" viewBox="0 0 18.031 24.094"><path id="Pointer_icon" data-name="Pointer icon" class="cls-1" d="M153.062 706.005a9.033 9.033 0 0 0-9.062 8.974c0 5.234 4.582 10.744 7.852 14.507a1.839 1.839 0 0 0 1.186.6h.058a1.84 1.84 0 0 0 1.187-.6c3.271-3.763 7.757-9.273 7.757-14.507a8.952 8.952 0 0 0-8.973-8.974zm-.081 12.988a4 4 0 1 1 4.039-4 4.025 4.025 0 0 1-4.039 4z" transform="translate(-144 -706)"/></symbol><symbol id="quote-icon" viewBox="0 0 17 15.5"><path id="_" data-name="&quot;" class="cls-1" d="M446 2942.94h3.46a8.855 8.855 0 0 1-3.211 6.1l2.494 2.43q4.27-4.335 4.271-9.24v-6.26H446v6.97zm10 0h3.46a8.855 8.855 0 0 1-3.211 6.1l2.494 2.43q4.27-4.335 4.271-9.24v-6.26H456v6.97z" transform="translate(-446 -2935.97)"/></symbol><symbol id="rss-icon" viewBox="0 0 16.031 16.031"><path id="Rss_Icon" data-name="Rss Icon" class="cls-1" d="M636.129 400.084a2.131 2.131 0 1 1 2.138-2.131 2.133 2.133 0 0 1-2.138 2.131zm5.362.014a7.506 7.506 0 0 0-7.5-7.516v-3.076a10.6 10.6 0 0 1 10.585 10.594h-3.085zm5.449 0a12.972 12.972 0 0 0-12.94-12.97v-3.077a16.057 16.057 0 0 1 16.025 16.049h-3.085z" transform="translate(-634 -384.063)"/></symbol><symbol id="search-icon" viewBox="0 0 16.031 16.031"><path id="Search_icon" data-name="Search icon" class="cls-1" d="M842.728 143.309l-3.942-3.921a6.445 6.445 0 0 0 1.3-3.884 6.546 6.546 0 1 0-2.739 5.289l3.955 3.933a1.011 1.011 0 0 0 1.424 0 1 1 0 0 0 .002-1.417zm-9.187-3.3a4.508 4.508 0 1 1 4.532-4.507 4.519 4.519 0 0 1-4.532 4.509z" transform="translate(-827 -129)"/></symbol><symbol id="share-icon" viewBox="0 0 31.938 28.81"><path id="Share_icon_copy" data-name="Share icon copy" class="cls-1" d="M479.584 1567.55h.092a.644.644 0 0 1-.629-.62c-.01-.27-.421-6.63 3.781-10.98a12.461 12.461 0 0 1 9.174-4.09v-5.02a.643.643 0 0 1 1.038-.51l10.645 8.33a.644.644 0 0 1 .248.51.659.659 0 0 1-.248.51l-10.645 8.33a.663.663 0 0 1-.678.07.656.656 0 0 1-.36-.58v-5.52c-11.622.29-11.784 8.63-11.811 8.98a.612.612 0 0 1-.607.59zm19.41-5.31v9.12a.644.644 0 0 1-.643.64h-22.708a.645.645 0 0 1-.644-.64v-15.73a.645.645 0 0 1 .644-.64h4.666a11.049 11.049 0 0 1 2.844-2.98h-9.229a1.935 1.935 0 0 0-1.931 1.93v19.14a1.935 1.935 0 0 0 1.931 1.93h26.146a1.935 1.935 0 0 0 1.93-1.93v-13.25z" transform="translate(-472 -1546.19)"/></symbol><symbol id="shop-icon" viewBox="0 0 22.062 22.062"><path id="Shop_icon" data-name="Shop icon" class="cls-1" d="M140.625 280.451a2.458 2.458 0 0 0 2.45 2.451 2.427 2.427 0 0 0 2.45-2.451 2.457 2.457 0 0 0-2.45-2.45 2.49 2.49 0 0 0-2.45 2.45zm12.251 0a2.458 2.458 0 0 0 2.45 2.451 2.427 2.427 0 0 0 2.45-2.451 2.457 2.457 0 0 0-2.45-2.45 2.49 2.49 0 0 0-2.45 2.45zm-7.89-5.782l13.574-3.869a.649.649 0 0 0 .441-.637v-6.713h-17.249v-2.107a.528.528 0 0 0-.49-.491h-3.822a.528.528 0 0 0-.49.491v1.96h2.4l2.4 11.123.25 1.125v1.862a.491.491 0 0 0 .49.49h16.024a.491.491 0 0 0 .49-.49v-1.862h-13.77c-1.424 0-1.424-.539-.248-.882z" transform="translate(-136.938 -260.844)"/></symbol><symbol id="trophy-icon" viewBox="0 0 24.375 22"><path id="Trophy_icon" data-name="Trophy icon" class="cls-1" d="M158.952 444.034h-16s-.062 8.466 1.875 11.091c1.367 1.851 4.314 1.006 4.531 3.261a16.891 16.891 0 0 1 0 3.432c0 1.092-1.6 1.562-2.912 2.362a2.016 2.016 0 0 0-1.165 1.854h11.342a2.013 2.013 0 0 0-1.165-1.854c-1.311-.8-2.912-1.27-2.912-2.362a16.891 16.891 0 0 1 0-3.432c.218-2.255 3.164-1.41 4.531-3.261 1.938-2.625 1.875-11.091 1.875-11.091zm-.458 10.086a3.04 3.04 0 0 1-2.677-1.967l1.77-.932c.594 1.124 1.024.917 1.258.8 1.418-.692 2.592-3.726 2.307-4.36-.639-.6-2.266.433-2.662.745l-1.244-1.566c1.2-.957 3.676-2.153 5.335-.566.723.692.8 1.971.207 3.6-.706 1.952-2.3 4.111-4.118 4.236-.057.007-.116.01-.176.01zm-14.988 0a3.04 3.04 0 0 0 2.677-1.967l-1.77-.932c-.594 1.124-1.024.917-1.258.8-1.418-.692-2.592-3.726-2.307-4.36.639-.6 2.266.433 2.662.745l1.244-1.566c-1.2-.957-3.676-2.153-5.335-.566-.723.692-.8 1.971-.207 3.6.706 1.952 2.3 4.111 4.118 4.236.057.007.116.01.176.01z" transform="translate(-138.813 -444.031)"/></symbol><symbol id="twitter-icon" viewBox="0 0 16.031 13"><path id="Twitter_Icon" data-name="Twitter Icon" class="cls-1" d="M932.027 132.547a6.583 6.583 0 0 1-1.889.518 3.3 3.3 0 0 0 1.446-1.815 6.637 6.637 0 0 1-2.087.8 3.289 3.289 0 0 0-5.6 2.993 9.348 9.348 0 0 1-6.776-3.428 3.278 3.278 0 0 0 1.018 4.379 3.262 3.262 0 0 1-1.489-.411v.042a3.285 3.285 0 0 0 2.638 3.217 3.3 3.3 0 0 1-.867.115 3.23 3.23 0 0 1-.618-.059 3.286 3.286 0 0 0 3.071 2.278 6.621 6.621 0 0 1-4.874 1.355 9.35 9.35 0 0 0 14.391-7.86c0-.142 0-.284-.008-.425a6.673 6.673 0 0 0 1.644-1.699z" transform="translate(-916 -131)"/></symbol><symbol id="users-icon" viewBox="0 0 26 16.062"><path id="Users_icon" data-name="Users icon" class="cls-1" d="M144.109 388a3.087 3.087 0 0 0-3.109 2.778v1.983a5.026 5.026 0 0 0 1.542 3.511l-2.523 1.6a1.981 1.981 0 0 0-1.019 1.236v.456c0 .439.549.435.987.435H144v-1.594a2.561 2.561 0 0 1 1.363-2.152 5.076 5.076 0 0 0 1.637-3.492v-1.983a2.876 2.876 0 0 0-2.891-2.778zm19.872 9.9l-2.524-1.63a5.023 5.023 0 0 0 1.543-3.509v-1.983a3.088 3.088 0 0 0-3.109-2.778 2.876 2.876 0 0 0-2.891 2.778v1.983a5.076 5.076 0 0 0 1.637 3.492 2.561 2.561 0 0 1 1.363 2.152V400h4.013c.438 0 .987 0 .987-.435v-.456a1.9 1.9 0 0 0-1.019-1.209zm-5.913 2.128h-12.029a1.031 1.031 0 0 1-1.031-1.028v-.594a1.82 1.82 0 0 1 1.068-1.364l4.122-2.322a6.945 6.945 0 0 1-2.266-4.563v-2.577a4.1 4.1 0 0 1 4.125-3.61 3.817 3.817 0 0 1 3.842 3.61v2.577a6.705 6.705 0 0 1-2.245 4.573l4.463 2.416a1.578 1.578 0 0 1 .983 1.26V399a1.031 1.031 0 0 1-1.032 1.03z" transform="translate(-139 -383.969)"/></symbol><symbol id="video-icon" viewBox="0 0 20 13.06"><path id="Video_Icon" data-name="Video Icon" class="cls-1" d="M142.683 1383a1.3 1.3 0 0 1 1.3 1.3v2.99l4.886-4.1a.653.653 0 0 1 1.114.46v11.74a.648.648 0 0 1-1.114.46l-4.886-4.1v2.99a1.3 1.3 0 0 1-1.305 1.3H131.3a1.3 1.3 0 0 1-1.3-1.3v-10.44a1.3 1.3 0 0 1 1.3-1.3h11.376z" transform="translate(-130 -1383)"/></symbol><symbol id="views-icon" viewBox="0 0 22.313 13.94"><path id="Views_icon" data-name="Views icon" class="cls-1" d="M645.513 2844.96c-4.234 0-8.257-2.4-11.038-6.59a.679.679 0 0 1 0-.76c2.781-4.19 6.8-6.59 11.038-6.59s8.258 2.4 11.038 6.59a.679.679 0 0 1 0 .76c-2.779 4.19-6.803 6.59-11.038 6.59zm.452-11.96a5.005 5.005 0 1 0 5.037 5 5.022 5.022 0 0 0-5.037-5zm.042 2a3.005 3.005 0 1 1-3.007 3.01 3.01 3.01 0 0 1 3.007-3.01z" transform="translate(-634.375 -2831.03)"/></symbol></svg>